# xmcd
#
# Track frame offsets: 
#        150
#        25281
#        46917
#        68284
#        84948
#        103206
#        133082
#        148375
#        170033
#        191254
#        210105
#        228949
#        258972
#        287555
#        306393
#
# Disc length: 4482 seconds
#
# Revision: 1
# Processed by: cddbd v1.5.2PL0 Copyright (c) Steve Scherf et al.
# Submitted via: ExactAudioCopy v0.99pb4
#
DISCID=cd11800f
DTITLE=Various Artist - The Rough Guide To Salsa Clandestina
DYEAR=2007
DGENRE=Salsa
TTITLE0=Ray Santiago - It´s A Man´s World
TTITLE1=OZOMATLI - Nadie Te Tiera
TTITLE2=Radio Mundial - La Raiz
TTITLE3=Toro Ensamble - Cob Todas Las Baderas
TTITLE4=Jose' Conde and Ola Fresca - Cafe' con Sangre
TTITLE5=The Spam Allstars - Charango E-350 
TTITLE6=Alex Wilson - Subelo
TTITLE7=Bambazulu' - Neptolio
TTITLE8=Los Mocosos - Bandolera Era
TTITLE9=Cuban Cowboys - El Capitan
TTITLE10=Baku - Desde Cuba Hasta Afghanistan
TTITLE11=Horacio ' El Negro hernandez and Robby Ameen feat Ruben Blades 
TTITLE11=/Medley: Sympathy For The Devil El Cielo
TTITLE12=Los Amigos Invinsibles - Esto Es Lo Que Hay
TTITLE13=Rob Swift - Feat Bob James and D-Styles
TTITLE14=Roberto Rodriguez Feat Irving Fields - Wolfie´s Corner (Remix
TTITLE14=)
EXTD=
EXTT0=
EXTT1=
EXTT2=
EXTT3=
EXTT4=
EXTT5=
EXTT6=
EXTT7=
EXTT8=
EXTT9=
EXTT10=
EXTT11=
EXTT12=
EXTT13=
EXTT14=
PLAYORDER=
